{
    "asset" : {
        "generator" : "Khronos glTF Blender I/O v1.7.33",
        "version" : "2.0"
    },
    "scene" : 0,
    "scenes" : [
        {
            "name" : "Scene",
            "nodes" : [
                0
            ]
        }
    ],
    "nodes" : [
        {
            "mesh" : 0,
            "name" : "Cube.001",
            "rotation" : [
                0,
                0.7008221745491028,
                0,
                0.7133359909057617
            ],
            "scale" : [
                0.032314274460077286,
                0.012708758935332298,
                0.023571306839585304
            ],
            "translation" : [
                -0.0467972531914711,
                0.5976856350898743,
                -1.7408621311187744
            ]
        }
    ],
    "materials" : [
        {
            "doubleSided" : true,
            "name" : "HolderMetal",
            "normalTexture" : {
                "index" : 0
            },
            "pbrMetallicRoughness" : {
                "baseColorTexture" : {
                    "index" : 1
                },
                "metallicRoughnessTexture" : {
                    "index" : 2
                }
            }
        }
    ],
    "meshes" : [
        {
            "name" : "Cube.022",
            "primitives" : [
                {
                    "attributes" : {
                        "POSITION" : 0,
                        "NORMAL" : 1,
                        "TEXCOORD_0" : 2
                    },
                    "indices" : 3,
                    "material" : 0
                }
            ]
        }
    ],
    "textures" : [
        {
            "sampler" : 0,
            "source" : 0
        },
        {
            "sampler" : 0,
            "source" : 1
        },
        {
            "sampler" : 0,
            "source" : 2
        }
    ],
    "images" : [
        {
            "bufferView" : 4,
            "mimeType" : "image/png",
            "name" : "Holder_HolderMetal_Normal"
        },
        {
            "bufferView" : 5,
            "mimeType" : "image/png",
            "name" : "Holder_HolderMetal_BaseColor"
        },
        {
            "bufferView" : 6,
            "mimeType" : "image/png",
            "name" : "Holder_HolderMetal_BaseColor.png-Holder_HolderMetal_Roughness"
        }
    ],
    "accessors" : [
        {
            "bufferView" : 0,
            "componentType" : 5126,
            "count" : 5096,
            "max" : [
                8.271454811096191,
                19.009723663330078,
                1.5008430480957031
            ],
            "min" : [
                -1.750467300415039,
                -6.21795654296875,
                -35.950531005859375
            ],
            "type" : "VEC3"
        },
        {
            "bufferView" : 1,
            "componentType" : 5126,
            "count" : 5096,
            "type" : "VEC3"
        },
        {
            "bufferView" : 2,
            "componentType" : 5126,
            "count" : 5096,
            "type" : "VEC2"
        },
        {
            "bufferView" : 3,
            "componentType" : 5123,
            "count" : 7644,
            "type" : "SCALAR"
        }
    ],
    "bufferViews" : [
        {
            "buffer" : 0,
            "byteLength" : 61152,
            "byteOffset" : 0
        },
        {
            "buffer" : 0,
            "byteLength" : 61152,
            "byteOffset" : 61152
        },
        {
            "buffer" : 0,
            "byteLength" : 40768,
            "byteOffset" : 122304
        },
        {
            "buffer" : 0,
            "byteLength" : 15288,
            "byteOffset" : 163072
        },
        {
            "buffer" : 0,
            "byteLength" : 5966,
            "byteOffset" : 178360
        },
        {
            "buffer" : 0,
            "byteLength" : 814703,
            "byteOffset" : 184328
        },
        {
            "buffer" : 0,
            "byteLength" : 723798,
            "byteOffset" : 999032
        }
    ],
    "samplers" : [
        {
            "magFilter" : 9729,
            "minFilter" : 9987
        }
    ],
    "buffers" : [
        {
            "byteLength" : 1722832,
            "uri" : "data:application/octet-stream;base64,"
        }
    ]
}
