{
    "asset" : {
        "generator" : "Khronos glTF Blender I/O v1.7.33",
        "version" : "2.0"
    },
    "scene" : 0,
    "scenes" : [
        {
            "name" : "Scene",
            "nodes" : [
                0
            ]
        }
    ],
    "nodes" : [
        {
            "mesh" : 0,
            "name" : "Cube",
            "scale" : [
                0.742024838924408,
                0.742024838924408,
                0.742024838924408
            ],
            "translation" : [
                -0.4539724886417389,
                0.6844625473022461,
                -1.8073641061782837
            ]
        }
    ],
    "materials" : [
        {
            "doubleSided" : true,
            "name" : "Scroll",
            "normalTexture" : {
                "index" : 0
            },
            "pbrMetallicRoughness" : {
                "baseColorTexture" : {
                    "index" : 1
                },
                "metallicRoughnessTexture" : {
                    "index" : 2
                }
            }
        },
        {
            "doubleSided" : true,
            "name" : "Button",
            "normalTexture" : {
                "index" : 3
            },
            "pbrMetallicRoughness" : {
                "baseColorTexture" : {
                    "index" : 4
                },
                "metallicRoughnessTexture" : {
                    "index" : 5
                }
            }
        },
        {
            "doubleSided" : true,
            "name" : "Ribbon",
            "normalTexture" : {
                "index" : 6
            },
            "pbrMetallicRoughness" : {
                "baseColorTexture" : {
                    "index" : 7
                },
                "metallicRoughnessTexture" : {
                    "index" : 8
                }
            }
        }
    ],
    "meshes" : [
        {
            "name" : "Cube.001",
            "primitives" : [
                {
                    "attributes" : {
                        "POSITION" : 0,
                        "NORMAL" : 1,
                        "TEXCOORD_0" : 2
                    },
                    "indices" : 3,
                    "material" : 0
                },
                {
                    "attributes" : {
                        "POSITION" : 4,
                        "NORMAL" : 5,
                        "TEXCOORD_0" : 6
                    },
                    "indices" : 7,
                    "material" : 1
                },
                {
                    "attributes" : {
                        "POSITION" : 8,
                        "NORMAL" : 9,
                        "TEXCOORD_0" : 10
                    },
                    "indices" : 11,
                    "material" : 2
                }
            ]
        }
    ],
    "textures" : [
        {
            "sampler" : 0,
            "source" : 0
        },
        {
            "sampler" : 0,
            "source" : 1
        },
        {
            "sampler" : 0,
            "source" : 2
        },
        {
            "sampler" : 0,
            "source" : 3
        },
        {
            "sampler" : 0,
            "source" : 4
        },
        {
            "sampler" : 0,
            "source" : 5
        },
        {
            "sampler" : 0,
            "source" : 6
        },
        {
            "sampler" : 0,
            "source" : 7
        },
        {
            "sampler" : 0,
            "source" : 8
        }
    ],
    "images" : [
        {
            "bufferView" : 4,
            "mimeType" : "image/png",
            "name" : "Scroll_Scroll_Normal"
        },
        {
            "bufferView" : 5,
            "mimeType" : "image/png",
            "name" : "Scroll_Scroll_BaseColor"
        },
        {
            "bufferView" : 6,
            "mimeType" : "image/png",
            "name" : "Scroll_Scroll_Metallic-Scroll_Scroll_Roughness"
        },
        {
            "bufferView" : 11,
            "mimeType" : "image/png",
            "name" : "Scroll_Button_Normal"
        },
        {
            "bufferView" : 12,
            "mimeType" : "image/png",
            "name" : "Scroll_Button_BaseColor"
        },
        {
            "bufferView" : 13,
            "mimeType" : "image/png",
            "name" : "Scroll_Button_Metallic-Scroll_Button_Roughness"
        },
        {
            "bufferView" : 18,
            "mimeType" : "image/png",
            "name" : "Scroll_Ribbon_Normal"
        },
        {
            "bufferView" : 19,
            "mimeType" : "image/png",
            "name" : "Scroll_Ribbon_BaseColor"
        },
        {
            "bufferView" : 20,
            "mimeType" : "image/png",
            "name" : "Scroll_Ribbon_Metallic-Scroll_Ribbon_Roughness"
        }
    ],
    "accessors" : [
        {
            "bufferView" : 0,
            "componentType" : 5126,
            "count" : 226,
            "max" : [
                0.737467885017395,
                0.07362450659275055,
                0.03607979416847229
            ],
            "min" : [
                -0.7362080812454224,
                -0.1939995139837265,
                -0.23154416680335999
            ],
            "type" : "VEC3"
        },
        {
            "bufferView" : 1,
            "componentType" : 5126,
            "count" : 226,
            "type" : "VEC3"
        },
        {
            "bufferView" : 2,
            "componentType" : 5126,
            "count" : 226,
            "type" : "VEC2"
        },
        {
            "bufferView" : 3,
            "componentType" : 5123,
            "count" : 348,
            "type" : "SCALAR"
        },
        {
            "bufferView" : 7,
            "componentType" : 5126,
            "count" : 384,
            "max" : [
                0.034201622009277344,
                0.019505321979522705,
                -0.016040079295635223
            ],
            "min" : [
                -0.03420180082321167,
                -0.030644260346889496,
                -0.0824480727314949
            ],
            "type" : "VEC3"
        },
        {
            "bufferView" : 8,
            "componentType" : 5126,
            "count" : 384,
            "type" : "VEC3"
        },
        {
            "bufferView" : 9,
            "componentType" : 5126,
            "count" : 384,
            "type" : "VEC2"
        },
        {
            "bufferView" : 10,
            "componentType" : 5123,
            "count" : 576,
            "type" : "SCALAR"
        },
        {
            "bufferView" : 14,
            "componentType" : 5126,
            "count" : 176,
            "max" : [
                0.07724899798631668,
                0.020332805812358856,
                0.08546940237283707
            ],
            "min" : [
                -0.07498255372047424,
                -0.2009187638759613,
                -0.2185755968093872
            ],
            "type" : "VEC3"
        },
        {
            "bufferView" : 15,
            "componentType" : 5126,
            "count" : 176,
            "type" : "VEC3"
        },
        {
            "bufferView" : 16,
            "componentType" : 5126,
            "count" : 176,
            "type" : "VEC2"
        },
        {
            "bufferView" : 17,
            "componentType" : 5123,
            "count" : 264,
            "type" : "SCALAR"
        }
    ],
    "bufferViews" : [
        {
            "buffer" : 0,
            "byteLength" : 2712,
            "byteOffset" : 0
        },
        {
            "buffer" : 0,
            "byteLength" : 2712,
            "byteOffset" : 2712
        },
        {
            "buffer" : 0,
            "byteLength" : 1808,
            "byteOffset" : 5424
        },
        {
            "buffer" : 0,
            "byteLength" : 696,
            "byteOffset" : 7232
        },
        {
            "buffer" : 0,
            "byteLength" : 1251878,
            "byteOffset" : 7928
        },
        {
            "buffer" : 0,
            "byteLength" : 665866,
            "byteOffset" : 1259808
        },
        {
            "buffer" : 0,
            "byteLength" : 531179,
            "byteOffset" : 1925676
        },
        {
            "buffer" : 0,
            "byteLength" : 4608,
            "byteOffset" : 2456856
        },
        {
            "buffer" : 0,
            "byteLength" : 4608,
            "byteOffset" : 2461464
        },
        {
            "buffer" : 0,
            "byteLength" : 3072,
            "byteOffset" : 2466072
        },
        {
            "buffer" : 0,
            "byteLength" : 1152,
            "byteOffset" : 2469144
        },
        {
            "buffer" : 0,
            "byteLength" : 25345,
            "byteOffset" : 2470296
        },
        {
            "buffer" : 0,
            "byteLength" : 29044,
            "byteOffset" : 2495644
        },
        {
            "buffer" : 0,
            "byteLength" : 49774,
            "byteOffset" : 2524688
        },
        {
            "buffer" : 0,
            "byteLength" : 2112,
            "byteOffset" : 2574464
        },
        {
            "buffer" : 0,
            "byteLength" : 2112,
            "byteOffset" : 2576576
        },
        {
            "buffer" : 0,
            "byteLength" : 1408,
            "byteOffset" : 2578688
        },
        {
            "buffer" : 0,
            "byteLength" : 528,
            "byteOffset" : 2580096
        },
        {
            "buffer" : 0,
            "byteLength" : 207852,
            "byteOffset" : 2580624
        },
        {
            "buffer" : 0,
            "byteLength" : 194842,
            "byteOffset" : 2788476
        },
        {
            "buffer" : 0,
            "byteLength" : 140853,
            "byteOffset" : 2983320
        }
    ],
    "samplers" : [
        {
            "magFilter" : 9729,
            "minFilter" : 9987
        }
    ],
    "buffers" : [
        {
            "byteLength" : 3124176,
            "uri" : "data:application/octet-stream;base64,"
        }
    ]
}
